#!OML:ASF F:\VICON\USERDATA\INSTALL\rory3\rory3.ASF
:FULLY-SPECIFIED
:DEGREES
780
root -0.463363 16.4613 21.8288 -153.055 -28.9665 -185.208
lowerback -17.2167 0.371262 -3.56807
upperback -4.21892 0.747348 -2.40927
thorax 5.10037 0.114968 -0.394388
lowerneck -7.16192 7.39663 3.41009
upperneck 10.0008 10.0797 -5.4446
head 4.62182 4.73668 -1.57964
rclavicle 7.16122e-014 -1.37161e-014
rhumerus -33.49 -4.15121 -83.845
rradius 45.0302
rwrist -12.0478
rhand -1.23543 19.8723
rfingers 7.12502
rthumb 24.4065 -8.59324
lclavicle 7.16122e-014 -1.37161e-014
lhumerus -38.1777 -21.7564 95.4423
lradius 75.8138
lwrist -38.7239
lhand 8.09223 13.8404
lfingers 7.12502
lthumb 33.3147 40.7737
rfemur 93.4453 -155.247 -150.653
rtibia 59.5343
rfoot 28.6825 -22.3521
rtoes 17.4966
lfemur -30.8525 -6.45133 -27.7571
ltibia 37.6941
lfoot -38.976 20.0935
ltoes -8.96753
781
root -0.458506 16.4367 21.7635 -152.829 -29.1724 -185.559
lowerback -17.2188 0.378073 -3.68589
upperback -4.38069 0.755028 -2.59168
thorax 4.9285 0.109945 -0.519945
lowerneck -6.88092 7.37428 3.44403
upperneck 10.2268 10.0291 -5.22486
head 4.63218 4.72426 -1.52925
rclavicle -7.25813e-014 9.93923e-015
rhumerus -34.1001 -4.80281 -83.656
rradius 44.7469
rwrist -11.6925
rhand -2.37369 20.4815
rfingers 7.12502
rthumb 23.3149 -8.12664
lclavicle -7.25813e-014 9.93923e-015
lhumerus -38.6934 -22.3006 95.292
lradius 75.8611
lwrist -39.7081
lhand 7.98704 13.7199
lfingers 7.12502
lthumb 33.2147 40.6745
rfemur 93.1838 -154.801 -150.953
rtibia 60.4773
rfoot 28.6001 -20.9424
rtoes 19.1821
lfemur -30.7394 -6.40034 -27.924
ltibia 37.7887
lfoot -38.9121 20.1679
ltoes -10.6719
782
root -0.452866 16.4136 21.6929 -152.687 -29.4106 -185.86
lowerback -17.2966 0.373056 -3.76449
upperback -4.40512 0.763864 -2.76701
thorax 4.94461 0.108468 -0.660315
lowerneck -5.95702 7.28562 4.15792
upperneck 9.62493 9.88958 -5.78688
head 4.3519 4.67925 -1.8638
rclavicle -3.91357e-014 -1.98785e-014
rhumerus -34.4597 -5.32424 -83.5148
rradius 44.6717
rwrist -12.1311
rhand -3.59316 20.944
rfingers 7.12502
rthumb 22.1446 -7.80776
lclavicle -3.91357e-014 -1.98785e-014
lhumerus -39.0543 -22.9154 95.0419
lradius 75.9494
lwrist -40.5104
lhand 7.95512 13.7539
lfingers 7.12502
lthumb 33.1844 40.715
rfemur 93.0924 -154.388 -151.257
rtibia 61.4221
rfoot 26.9434 -19.9714
rtoes 18.3212
lfemur -30.5648 -6.17143 -28.0329
ltibia 37.9435
lfoot -38.7012 19.8435
ltoes -11.0743
783
root -0.445025 16.3909 21.6279 -152.44 -29.6497 -186.122
lowerback -17.3229 0.310785 -3.81175
upperback -4.49783 0.67663 -2.84957
thorax 4.86081 0.0602948 -0.739698
lowerneck -7.49663 7.37024 3.12361
upperneck 11.3501 9.99549 -4.47967
head 5.02478 4.70342 -1.21393
rclavicle 4.25648e-014 3.63776e-014
rhumerus -35.0375 -5.72706 -83.3541
rradius 44.909
rwrist -12.9473
rhand -5.2333 22.0825
rfingers 7.12502
rthumb 20.5692 -6.84778
lclavicle 4.25648e-014 3.63776e-014
lhumerus -39.3192 -23.229 94.858
lradius 76.0132
lwrist -41.1434
lhand 8.53718 13.8152
lfingers 7.12502
lthumb 33.7376 40.6569
rfemur 92.9251 -154.08 -151.555
rtibia 62.3252
rfoot 24.8899 -19.5428
rtoes 17.9177
lfemur -30.5904 -5.89671 -28.1058
ltibia 38.1339
lfoot -38.5005 19.4704
ltoes -11.452
784
root -0.439437 16.3697 21.5665 -152.209 -30.0157 -186.161
lowerback -17.5186 0.330265 -3.6435
upperback -4.54237 0.675845 -2.86042
thorax 4.92078 0.0576277 -0.847082
lowerneck -8.08004 7.35942 2.49699
upperneck 11.9255 9.99698 -3.91004
head 5.23965 4.69191 -0.911675
rclavicle -8.55271e-014 4.67144e-014
rhumerus -35.5399 -6.28529 -82.9927
rradius 44.9991
rwrist -13.5391
rhand -3.87771 20.5944
rfingers 7.12502
rthumb 21.8714 -8.18947
lclavicle -8.55271e-014 4.67144e-014
lhumerus -39.4068 -23.6884 94.7613
lradius 75.9949
lwrist -41.6458
lhand 8.84795 13.5649
lfingers 7.12502
lthumb 34.0329 40.3414
rfemur 92.7685 -153.752 -151.55
rtibia 63.1511
rfoot 22.3934 -19.5245
rtoes 17.2364
lfemur -30.7548 -5.9289 -27.8689
ltibia 38.3464
lfoot -38.513 19.2537
ltoes -11.9258
